<?xml version="1.0" encoding="utf-8"?><svg xmlns="http://www.w3.org/2000/svg" xmlns:xlink="http://www.w3.org/1999/xlink"><symbol viewBox="0 0 284.929 284.929" id="angle-down" xmlns="http://www.w3.org/2000/svg"><path d="M282.082 76.511l-14.274-14.273c-1.902-1.906-4.093-2.856-6.57-2.856-2.471 0-4.661.95-6.563 2.856L142.466 174.441 30.262 62.241c-1.903-1.906-4.093-2.856-6.567-2.856-2.475 0-4.665.95-6.567 2.856L2.856 76.515C.95 78.417 0 80.607 0 83.082c0 2.473.953 4.663 2.856 6.565l133.043 133.046c1.902 1.903 4.093 2.854 6.567 2.854s4.661-.951 6.562-2.854L282.082 89.647c1.902-1.903 2.847-4.093 2.847-6.565 0-2.475-.945-4.665-2.847-6.571z"/></symbol><symbol viewBox="0 0 24 24" id="fb" xmlns="http://www.w3.org/2000/svg"><path d="M22.675 0H1.325C.593 0 0 .593 0 1.325v21.351C0 23.407.593 24 1.325 24H12.82v-9.294H9.692v-3.622h3.128V8.413c0-3.1 1.893-4.788 4.659-4.788 1.325 0 2.463.099 2.795.143v3.24l-1.918.001c-1.504 0-1.795.715-1.795 1.763v2.313h3.587l-.467 3.622h-3.12V24h6.116c.73 0 1.323-.593 1.323-1.325V1.325C24 .593 23.407 0 22.675 0z"/></symbol><symbol viewBox="0 0 24 24" id="instagram" xmlns="http://www.w3.org/2000/svg"><path d="M12 2.163c3.204 0 3.584.012 4.85.07 3.252.148 4.771 1.691 4.919 4.919.058 1.265.069 1.645.069 4.849 0 3.205-.012 3.584-.069 4.849-.149 3.225-1.664 4.771-4.919 4.919-1.266.058-1.644.07-4.85.07-3.204 0-3.584-.012-4.849-.07-3.26-.149-4.771-1.699-4.919-4.92-.058-1.265-.07-1.644-.07-4.849 0-3.204.013-3.583.07-4.849.149-3.227 1.664-4.771 4.919-4.919 1.266-.057 1.645-.069 4.849-.069zM12 0C8.741 0 8.333.014 7.053.072 2.695.272.273 2.69.073 7.052.014 8.333 0 8.741 0 12c0 3.259.014 3.668.072 4.948.2 4.358 2.618 6.78 6.98 6.98C8.333 23.986 8.741 24 12 24c3.259 0 3.668-.014 4.948-.072 4.354-.2 6.782-2.618 6.979-6.98.059-1.28.073-1.689.073-4.948 0-3.259-.014-3.667-.072-4.947-.196-4.354-2.617-6.78-6.979-6.98C15.668.014 15.259 0 12 0zm0 5.838a6.162 6.162 0 100 12.324 6.162 6.162 0 000-12.324zM12 16a4 4 0 110-8 4 4 0 010 8zm6.406-11.845a1.44 1.44 0 100 2.881 1.44 1.44 0 000-2.881z"/></symbol><symbol viewBox="0 0 16 16" id="phone" xmlns="http://www.w3.org/2000/svg"><path fill-rule="evenodd" clip-rule="evenodd" d="M15.406 11.597l-3.272-1.686a1.079 1.079 0 00-1.342.293l-1.194 1.54C8.42 11.12 7.539 10.516 6.51 9.489c-1.103-1.1-1.691-1.998-2.28-3.135l1.526-1.191c.405-.312.533-.88.294-1.338L4.36.58A1.094 1.094 0 002.796.177L.72 1.57c-.478.33-.753.88-.717 1.448.037.587.11 1.338.258 1.852.606 2.328 2.058 4.73 4.117 6.764 2.04 2.035 4.448 3.483 6.782 4.106.515.128 1.268.202 1.875.257a1.615 1.615 0 001.47-.733l1.36-2.109c.294-.55.092-1.264-.46-1.558z"/></symbol><symbol viewBox="0 0 16 16" id="search" xmlns="http://www.w3.org/2000/svg"><path d="M15.642 13.671L12.78 10.81a1.218 1.218 0 00-1.582-.125l-.568-.55a6.073 6.073 0 001.546-4.054C12.176 2.738 9.44 0 6.096 0A6.107 6.107 0 000 6.098a6.107 6.107 0 006.097 6.098 6.105 6.105 0 004.053-1.547l.55.551a1.218 1.218 0 00.125 1.582l2.844 2.862c.231.25.551.356.871.356.32 0 .622-.124.871-.356l.213-.213a1.24 1.24 0 00.018-1.76zm-9.545-2.898a4.68 4.68 0 01-4.675-4.675 4.681 4.681 0 014.675-4.676 4.68 4.68 0 014.675 4.676 4.68 4.68 0 01-4.675 4.675z"/></symbol><symbol viewBox="0 0 36 24" id="search-bars" xmlns="http://www.w3.org/2000/svg"><g fill-rule="evenodd"><path d="M12 2h24v2H12zm10 6h11v2H22zm-5 6h19v2H17z"/><path d="M1.74 18.38h0c-.996.995-.985 2.606.022 3.613l.294.293a2.586 2.586 0 001.769.711c.693 0 1.348-.254 1.798-.74l3.553-3.574a2.53 2.53 0 00.74-1.692 8.59 8.59 0 004.463 1.251c4.752 0 8.621-3.87 8.621-8.62C23 4.868 19.13 1 14.379 1c-4.73 0-8.6 3.87-8.6 8.599a8.54 8.54 0 001.25 4.462 2.53 2.53 0 00-1.712.741L1.74 18.38zm12.639-3.915A4.85 4.85 0 019.535 9.62a4.85 4.85 0 014.844-4.843 4.85 4.85 0 014.843 4.843 4.85 4.85 0 01-4.843 4.844z" fill-rule="nonzero" stroke="#FFF" stroke-width="2"/></g></symbol><symbol viewBox="0 0 13 12" id="star" xmlns="http://www.w3.org/2000/svg"><path d="M12.263 4.047L9.17 3.691a.53.53 0 01-.417-.317L7.478.416a.659.659 0 00-1.224 0L4.966 3.374a.523.523 0 01-.416.317l-3.093.356c-.581.066-.808.806-.38 1.215l2.298 2.192c.14.132.202.33.165.515l-.632 3.182c-.113.595.493 1.057.998.753l2.701-1.611a.518.518 0 01.518 0l2.701 1.611c.505.304 1.111-.158.998-.753l-.631-3.182a.525.525 0 01.151-.515l2.298-2.192c.416-.396.189-1.149-.38-1.215z" fill-rule="evenodd"/></symbol><symbol viewBox="0 0 148 170" id="tags" xmlns="http://www.w3.org/2000/svg"><path d="M138.691.005L87.789 2.07c-1.893.115-3.672.803-4.935 2.123L2.113 84.85c-3.042 3.04-2.755 8.203.574 11.588l48.892 48.877c3.328 3.327 8.55 3.613 11.592.573l80.684-80.657a7.34 7.34 0 002.124-4.934l2.008-50.884c.287-5.106-4.19-9.58-9.296-9.408zM123.369 33.85c-5.624 0-10.215-4.532-10.215-10.211 0-5.68 4.534-10.154 10.215-10.154a10.163 10.163 0 0110.215 10.211c0 5.68-4.591 10.154-10.215 10.154z"/><path d="M124.148 89.338l-65.414 63.95c-2.044 2.72-7.098 2.387-11.47-.555l-41.168-40.19-4.826 6.716c-2.442 3.386-1.25 8.327 2.612 10.936l56.215 38.193c3.804 2.608 8.972 1.998 11.413-1.444l54.285-76.273c.738-1.055-.682-2.276-1.647-1.333z"/></symbol><symbol viewBox="0 0 25 20" id="twitter" xmlns="http://www.w3.org/2000/svg"><path d="M7.862 20c9.435 0 14.594-7.694 14.594-14.365 0-.219-.005-.437-.015-.653A10.352 10.352 0 0025 2.368a10.4 10.4 0 01-2.945.795A5.081 5.081 0 0024.31.37a10.38 10.38 0 01-3.257 1.225A5.162 5.162 0 0017.309 0c-2.833 0-5.13 2.261-5.13 5.049 0 .396.045.781.133 1.15A14.64 14.64 0 011.74.926a4.97 4.97 0 00-.695 2.537c0 1.752.906 3.298 2.283 4.203a5.152 5.152 0 01-2.323-.632l-.001.065c0 2.445 1.768 4.487 4.115 4.95a5.221 5.221 0 01-2.317.086c.653 2.006 2.547 3.466 4.792 3.507a10.397 10.397 0 01-6.37 2.161c-.414 0-.823-.023-1.224-.07A14.688 14.688 0 007.862 20"/></symbol><symbol viewBox="0 0 35 20" id="vk" xmlns="http://www.w3.org/2000/svg"><path d="M33.627.879h-5.68a1.28 1.28 0 00-1.13.68s-2.265 4.202-2.993 5.617c-1.957 3.807-3.225 2.611-3.225.845V1.929c0-1.06-.853-1.92-1.906-1.92h-4.27a3.411 3.411 0 00-3.022 1.413s2.168-.353 2.168 2.59c0 .729.038 2.828.072 4.588a1.268 1.268 0 01-.795 1.21 1.254 1.254 0 01-1.403-.333 37.524 37.524 0 01-4.312-7.898 1.194 1.194 0 00-1.088-.7H.883a.875.875 0 00-.724.376.888.888 0 00-.104.814C1.622 6.398 8.37 20 16.075 20h3.243c.708 0 1.281-.578 1.281-1.29v-1.972c0-.506.299-.963.76-1.164.46-.2.995-.106 1.361.24l3.881 3.673c.349.33.81.513 1.288.513h5.096c2.458 0 2.458-1.718 1.118-3.047-.943-.936-4.347-4.549-4.347-4.549a1.78 1.78 0 01-.135-2.3c1.1-1.458 2.9-3.845 3.663-4.867 1.043-1.398 2.93-4.358.343-4.358z"/></symbol></svg>