<?xml version="1.0" encoding="utf-8"?><svg xmlns="http://www.w3.org/2000/svg" xmlns:xlink="http://www.w3.org/1999/xlink"><symbol viewBox="0 0 32 32" id="default" xmlns="http://www.w3.org/2000/svg"><circle cx="16" cy="16" r="16" fill="#fff"/><circle cx="16" cy="16" r="14"/><circle cx="16" cy="16" r="10" fill="#fff"/><circle cx="16" cy="16" r="5"/></symbol><symbol viewBox="0 0 12 12" id="dot" xmlns="http://www.w3.org/2000/svg"><circle cx="6" cy="6" r="6" fill="#fff"/><circle cx="6" cy="6" r="4"/></symbol><symbol viewBox="0 0 16 16" id="dot-medium" xmlns="http://www.w3.org/2000/svg"><circle cx="8" cy="8" r="8" fill="#fff"/><circle cx="8" cy="8" r="6"/></symbol><symbol viewBox="0 0 36 44" id="lego" xmlns="http://www.w3.org/2000/svg"><g transform="translate(2 2)"><path d="M15.293 39.707c-.805-.805-5.436-5.042-6.783-6.365C2.308 27.248-1 21.918-1 16-1 5.838 6.2-1 16-1c9.389 0 17 7.611 17 17 0 5.918-3.308 11.248-9.51 17.342-1.347 1.323-5.978 5.56-6.783 6.365l-.707.707-.707-.707z" stroke="#FFF" stroke-width="2"/><circle fill="#FFF" cx="16" cy="16" r="8"/></g></symbol><symbol viewBox="0 0 28 36" id="premium" xmlns="http://www.w3.org/2000/svg"><path fill-rule="evenodd" clip-rule="evenodd" d="M14 0C6.268 0 0 6.268 0 14c0 5.75 3.466 10.69 8.424 12.845 1.489.983 2.117 3.887 2.382 6.164C10.998 34.655 12.343 36 14 36s3.002-1.345 3.194-2.991c.265-2.277.893-5.181 2.382-6.164C24.533 24.69 28 19.75 28 14c0-7.732-6.268-14-14-14z" fill="#fff"/><path fill-rule="evenodd" clip-rule="evenodd" d="M26 14c0 5.265-3.39 9.738-8.108 11.355-1.525.739-2.449 5.731-2.767 7.775-.077.498-.503.87-1.008.87h-.234c-.504 0-.93-.372-1.008-.87-.317-2.043-1.239-7.03-2.763-7.774C5.392 23.741 2 19.266 2 14 2 7.373 7.373 2 14 2s12 5.373 12 12zm-12 4a4 4 0 100-8 4 4 0 000 8z"/></symbol><symbol viewBox="0 0 32 38" id="premium-active" xmlns="http://www.w3.org/2000/svg"><path fill-rule="evenodd" clip-rule="evenodd" d="M16 0C7.163 0 0 7.163 0 16c0 6.875 4.336 12.737 10.422 15 1.518.753 2.165 2.468 2.432 4.01C13.128 36.599 14.389 38 16 38s2.872-1.402 3.146-2.99c.267-1.542.914-3.256 2.432-4.01C27.664 28.738 32 22.876 32 16c0-8.837-7.163-16-16-16z" fill="#fff"/><path fill-rule="evenodd" clip-rule="evenodd" d="M19.853 29.463C25.71 27.79 30 22.396 30 16c0-7.732-6.268-14-14-14S2 8.268 2 16c0 6.397 4.29 11.792 10.15 13.464 1.769.723 2.485 4.006 2.734 5.626.08.513.514.91 1.034.91h.165c.519 0 .954-.397 1.033-.91.25-1.62.966-4.906 2.737-5.627z"/><circle cx="16" cy="16" r="5" fill="#fff"/></symbol><symbol viewBox="0 0 32 32" id="profile" xmlns="http://www.w3.org/2000/svg"><circle cx="16" cy="16" r="16" fill="#fff"/><circle cx="16" cy="16" r="10" fill="#f84177"/></symbol><symbol viewBox="0 0 13 12" id="star" xmlns="http://www.w3.org/2000/svg"><path d="M12.263 4.047L9.17 3.691a.53.53 0 01-.417-.317L7.478.416a.659.659 0 00-1.224 0L4.966 3.374a.523.523 0 01-.416.317l-3.093.356c-.581.066-.808.806-.38 1.215l2.298 2.192c.14.132.202.33.165.515l-.632 3.182c-.113.595.493 1.057.998.753l2.701-1.611a.518.518 0 01.518 0l2.701 1.611c.505.304 1.111-.158.998-.753l-.631-3.182a.525.525 0 01.151-.515l2.298-2.192c.416-.396.189-1.149-.38-1.215z"/></symbol></svg>