<?xml version="1.0" encoding="UTF-8"?>
<svg width="13px" height="12px" viewBox="0 0 13 12" version="1.1" xmlns="http://www.w3.org/2000/svg">
    <g transform="translate(-23.000000, -243.000000)" fill="#E0E0E0">
        <g transform="translate(23.855422, 241.000000)">
            <path d="M11.4074553,6.04722816 L8.31454667,5.69070235 C8.12518492,5.66429303 7.97369552,5.54545109 7.89795082,5.37379052 L6.622915,2.41594678 C6.38305678,1.86135107 5.63823388,1.86135107 5.39837566,2.41594678 L4.11071573,5.37379052 C4.03497103,5.54545109 3.87085751,5.67749769 3.69411987,5.69070235 L0.60121122,6.04722816 C0.0205018407,6.11325145 -0.206732264,6.85271239 0.222487712,7.26205684 L2.520077,9.45403032 C2.65894228,9.58607692 2.72206287,9.78414681 2.68419052,9.96901205 L2.05298467,13.151335 C1.93936762,13.7455447 2.54532523,14.2077078 3.05028991,13.9040006 L5.75185093,12.2930321 C5.91596445,12.2005995 6.10532621,12.2005995 6.26943973,12.2930321 L8.97100076,13.9040006 C9.47596543,14.2077078 10.081923,13.7455447 9.96830599,13.151335 L9.33710015,9.96901205 C9.28660368,9.78414681 9.34972426,9.58607692 9.48858955,9.45403032 L11.7861788,7.26205684 C12.2027747,6.86591705 11.9755406,6.11325145 11.4074553,6.04722816 Z"></path>
        </g>
    </g>
</svg>
